# Blender v2.77 (sub 0) OBJ File: 'Blue_Region_Wall_1.blend'
# www.blender.org
mtllib Blue_Region_Wall_1.mtl
o Plane.002
v 3.000000 3.500000 0.000003
v 3.000000 0.000000 0.000000
v -3.000000 0.000000 -0.000001
v -3.000000 3.500000 0.000002
v 3.000000 1.592145 0.000001
v -3.000000 1.592145 0.000000
v 3.000000 1.364576 0.000001
v -3.000000 1.364576 -0.000000
v -3.000000 1.364576 -0.044188
v -3.000000 1.592146 -0.044188
v 3.000000 1.592146 -0.044187
v 3.000000 1.364576 -0.044187
vt 0.000076 0.395690
vt 0.000076 0.000076
vt 0.999924 0.000076
vt 0.999923 0.395691
vt 0.000076 0.994344
vt 0.000076 0.447604
vt 0.999923 0.447604
vt 0.999923 0.994344
vt 0.999923 0.395691
vt 0.000076 0.395690
vt 0.000076 0.447604
vt 0.999923 0.447604
vn 0.000000 0.000000 -1.000000
vn 0.000000 -1.000000 -0.000000
vn -0.000000 1.000000 0.000000
usemtl None.002
s 1
f 7/1/1 2/2/1 3/3/1 8/4/1
f 1/5/1 5/6/1 6/7/1 4/8/1
f 7/1/2 8/4/2 9/9/2 12/10/2
f 11/11/1 12/10/1 9/9/1 10/12/1
f 6/7/3 5/6/3 11/11/3 10/12/3
