# Blender v2.77 (sub 0) OBJ File: ''
# www.blender.org
mtllib Stairwell.mtl
o Cube
v 3.000000 -0.500000 -3.000000
v 3.000000 -0.500000 3.000000
v -3.000000 -0.500000 3.000000
v -3.000000 -0.500000 -3.000000
v 3.000000 -0.000000 -3.000000
v 2.999999 -0.000000 3.000000
v -3.000000 -0.000000 3.000000
v -3.000000 -0.000000 -3.000000
v 3.000000 -0.500000 -1.500000
v 3.000000 -0.500000 1.500000
v 1.500000 -0.500000 -3.000000
v -1.500000 -0.500000 -3.000000
v 1.500000 -0.500000 3.000000
v -1.500000 -0.500000 3.000000
v -3.000000 -0.500000 1.500000
v -3.000000 -0.500000 -1.500000
v 3.000000 -0.000000 -1.500000
v 3.000000 -0.000000 1.500000
v 1.500000 -0.000000 -3.000000
v -1.500000 -0.000000 -3.000000
v 1.499999 -0.000000 3.000000
v -1.500001 -0.000000 3.000000
v -3.000000 -0.000000 1.500000
v -3.000000 -0.000000 -1.500000
v 1.500000 -0.000000 -1.500000
v 1.500000 -0.000000 1.500000
v -1.500000 -0.000000 -1.500000
v -1.500000 -0.000000 1.500000
v 1.500000 -0.500000 -1.500000
v -1.500000 -0.500000 -1.500000
v 1.500000 -0.500000 1.500000
v -1.500000 -0.500000 1.500000
v 1.500000 -3.500000 1.500000
v -1.500000 -3.500000 1.500000
v 1.500000 -3.071429 1.071429
v 1.500000 -2.642857 0.642857
v 1.500000 -2.214286 0.214286
v 1.500000 -1.785714 -0.214286
v 1.500000 -1.357143 -0.642857
v 1.500000 -0.928571 -1.071429
v -1.500000 -3.071429 1.071428
v -1.500000 -2.642857 0.642857
v -1.500000 -2.214286 0.214286
v -1.500000 -1.785714 -0.214286
v -1.500000 -1.357143 -0.642857
v -1.500000 -0.928571 -1.071429
v 1.500000 -0.500000 -1.070599
v -1.500000 -0.500000 -1.070599
v 1.500000 -3.071429 1.500830
v 1.500000 -2.642857 1.072258
v 1.500000 -2.214286 0.643687
v 1.500000 -1.785714 0.215116
v 1.500000 -1.357143 -0.213456
v 1.500000 -0.928571 -0.642027
v -1.500000 -3.071429 1.500830
v -1.500000 -2.642857 1.072258
v -1.500000 -2.214286 0.643687
v -1.500000 -1.785714 0.215116
v -1.500000 -1.357143 -0.213456
v -1.500000 -0.928571 -0.642027
v 1.500000 -3.500000 0.997180
v -1.500000 -3.500000 0.997180
v 1.500000 -1.002820 -1.500000
v -1.500000 -1.002820 -1.500000
v 1.500000 -0.500000 -2.995946
v -1.500000 -0.500000 -2.995946
v 1.500000 -1.002820 -2.995946
v -1.500000 -1.002820 -2.995946
v 1.500000 -3.947042 1.500000
v -1.500000 -3.947042 1.500000
vn 0.000000 -1.000000 0.000000
vn 0.000000 1.000000 0.000000
vn 1.000000 -0.000000 0.000000
vn -0.000000 -0.001900 1.000000
vn -1.000000 0.000000 0.000000
vn 0.000000 -0.707100 -0.707100
vn -0.000000 -0.000000 1.000000
vn 0.000000 0.000000 -1.000000
vn 0.000000 -0.747300 -0.664400
usemtl Material
s off
f 32//1 14//1 3//1 15//1
f 28//2 23//2 7//2 22//2
f 18//2 26//2 21//2 6//2
f 26//2 28//2 22//2 21//2
f 5//2 19//2 25//2 17//2
f 17//2 25//2 26//2 18//2
f 19//2 20//2 27//2 25//2
f 20//2 8//2 24//2 27//2
f 27//2 24//2 23//2 28//2
f 12//1 30//1 16//1 4//1
f 30//1 32//1 15//1 16//1
f 1//1 9//1 29//1 11//1
f 9//1 10//1 31//1 29//1
f 10//1 2//1 13//1 31//1
f 31//1 13//1 14//1 32//1
f 40//3 54//3 39//3
f 39//3 53//3 38//3
f 38//3 52//3 37//3
f 37//3 51//3 36//3
f 36//3 50//3 35//3
f 34//4 33//4 49//4 55//4
f 35//3 49//3 33//3
f 39//2 45//2 59//2 53//2
f 37//2 43//2 57//2 51//2
f 35//2 41//2 55//2 49//2
f 40//2 46//2 60//2 54//2
f 38//2 44//2 58//2 52//2
f 30//2 48//2 47//2 29//2
f 36//2 42//2 56//2 50//2
f 29//3 47//3 40//3
f 42//4 36//4 51//4 57//4
f 41//4 35//4 50//4 56//4
f 43//4 37//4 52//4 58//4
f 44//4 38//4 53//4 59//4
f 45//4 39//4 54//4 60//4
f 46//4 40//4 47//4 48//4
f 46//5 45//5 60//5
f 45//5 44//5 59//5
f 44//5 43//5 58//5
f 43//5 42//5 57//5
f 42//5 41//5 56//5
f 41//5 34//5 55//5
f 34//5 41//5 42//5 43//5 44//5 45//5 46//5 30//5 64//5 62//5
f 64//5 30//5 66//5 68//5
f 29//3 40//3 39//3 38//3 37//3 36//3 35//3 33//3 61//3 63//3
f 64//6 63//6 61//6 62//6
f 29//3 63//3 67//3 65//3
f 63//1 64//1 68//1 67//1
f 30//5 46//5 48//5
f 27//7 30//7 29//7 25//7
f 25//5 29//5 31//5 26//5
f 27//3 28//3 32//3 30//3
f 28//8 26//8 31//8 32//8
f 70//7 69//7 33//7 34//7
f 69//3 61//3 33//3
f 34//5 62//5 70//5
f 69//9 70//9 62//9 61//9
